<?xml version="1.0" encoding="iso-8859-1"?>
<!-- Generator: Adobe Illustrator 19.0.0, SVG Export Plug-In . SVG Version: 6.00 Build 0)  -->
<svg version="1.1" id="Layer_1" xmlns="http://www.w3.org/2000/svg" xmlns:xlink="http://www.w3.org/1999/xlink" x="0px" y="0px"
	 viewBox="0 0 512 512" style="enable-background:new 0 0 512 512;" xml:space="preserve">
<path style="fill:#A78966;" d="M418.428,278.124v63.712H317.877h-61.878h-61.878H93.57v-63.712
	c-16.993-1.299-32.812-6.834-46.408-15.562V365.04v123.756c0,12.815,10.389,23.204,23.204,23.204h123.756h61.878h61.878h123.756
	c12.815,0,23.204-10.389,23.204-23.204V365.04V262.561C451.241,271.288,435.423,276.823,418.428,278.124z"/>
<path style="fill:#95D6A6;" d="M511.206,177.141c-0.009-0.339-0.025-0.676-0.05-1.01c-0.043-0.562-0.11-1.125-0.195-1.685
	c-0.04-0.266-0.074-0.535-0.122-0.798c-0.138-0.736-0.309-1.468-0.521-2.195c-0.029-0.107-0.05-0.218-0.082-0.323l-0.065-0.213
	L463.858,16.537C460.914,6.721,451.88,0,441.633,0H317.877h-61.878h-61.878H70.366C60.119,0,51.085,6.721,48.141,16.537
	L1.828,170.914l-0.065,0.213c-0.032,0.105-0.051,0.217-0.082,0.323c-0.212,0.727-0.384,1.459-0.521,2.195
	c-0.048,0.263-0.082,0.532-0.122,0.798c-0.085,0.562-0.152,1.123-0.195,1.686c-0.026,0.334-0.039,0.67-0.05,1.007
	c-0.009,0.254-0.039,0.503-0.039,0.76c0,35.518,18.528,66.769,46.408,84.663c13.596,8.726,29.415,14.261,46.408,15.562
	c2.556,0.195,5.13,0.326,7.735,0.326c31.069,0,58.888-14.17,77.347-36.381c18.46,22.211,46.278,36.381,77.347,36.381
	s58.888-14.17,77.347-36.381c18.46,22.211,46.278,36.381,77.347,36.381c2.605,0,5.179-0.132,7.735-0.326
	c16.993-1.299,32.812-6.834,46.408-15.562c27.881-17.894,46.408-49.145,46.408-84.663
	C511.245,177.642,511.216,177.394,511.206,177.141z"/>
<g>
	<path style="fill:#A78966;" d="M418.428,341.836H317.877c12.815,0,23.204,10.389,23.204,23.204v123.756
		c0,12.815-10.389,23.204-23.204,23.204h123.756c12.815,0,23.204-10.389,23.204-23.204V365.04V262.561
		c-13.596,8.726-29.415,14.261-46.408,15.562V341.836z"/>
	<path style="fill:#A78966;" d="M294.673,488.796V365.04c0-12.815,10.389-23.204,23.204-23.204h-61.878V512h61.878
		C305.062,512,294.673,501.611,294.673,488.796z"/>
</g>
<path id="SVGCleanerId_0" style="fill:#FFB655;" d="M341.081,488.796V365.04c0-12.815-10.389-23.204-23.204-23.204
	s-23.204,10.389-23.204,23.204v123.756c0,12.815,10.389,23.204,23.204,23.204S341.081,501.611,341.081,488.796z"/>
<path id="SVGCleanerId_1" style="fill:#EE8700;" d="M217.326,488.796V365.04c0-12.815-10.389-23.204-23.204-23.204
	c-12.815,0-23.204,10.389-23.204,23.204v123.756c0,12.815,10.389,23.204,23.204,23.204C206.936,512,217.326,501.611,217.326,488.796
	z"/>
<path id="SVGCleanerId_2" style="fill:#806749;" d="M194.121,341.836c12.815,0,23.204,10.389,23.204,23.204v123.756
	c0,12.815-10.389,23.204-23.204,23.204h61.878V341.836H194.121z"/>
<path id="SVGCleanerId_3" style="fill:#806749;" d="M170.917,488.796V365.04c0-12.815,10.389-23.204,23.204-23.204H93.57v-63.712
	c-16.993-1.299-32.812-6.836-46.408-15.562V365.04v123.756c0,12.815,10.389,23.204,23.204,23.204h123.756
	C181.307,512,170.917,501.611,170.917,488.796z"/>
<g>
	<path id="SVGCleanerId_0_1_" style="fill:#FFB655;" d="M341.081,488.796V365.04c0-12.815-10.389-23.204-23.204-23.204
		s-23.204,10.389-23.204,23.204v123.756c0,12.815,10.389,23.204,23.204,23.204S341.081,501.611,341.081,488.796z"/>
</g>
<g>
	<path id="SVGCleanerId_1_1_" style="fill:#EE8700;" d="M217.326,488.796V365.04c0-12.815-10.389-23.204-23.204-23.204
		c-12.815,0-23.204,10.389-23.204,23.204v123.756c0,12.815,10.389,23.204,23.204,23.204
		C206.936,512,217.326,501.611,217.326,488.796z"/>
</g>
<g>
	<path id="SVGCleanerId_2_1_" style="fill:#806749;" d="M194.121,341.836c12.815,0,23.204,10.389,23.204,23.204v123.756
		c0,12.815-10.389,23.204-23.204,23.204h61.878V341.836H194.121z"/>
</g>
<g>
	<path id="SVGCleanerId_3_1_" style="fill:#806749;" d="M170.917,488.796V365.04c0-12.815,10.389-23.204,23.204-23.204H93.57
		v-63.712c-16.993-1.299-32.812-6.836-46.408-15.562V365.04v123.756c0,12.815,10.389,23.204,23.204,23.204h123.756
		C181.307,512,170.917,501.611,170.917,488.796z"/>
</g>
<path style="fill:#64C37D;" d="M23.958,154.694h154.694h77.347V0h-61.878H70.366C60.119,0,51.085,6.721,48.141,16.537L1.828,170.914
	C4.792,161.513,13.576,154.694,23.958,154.694z"/>
<path style="fill:#69A15F;" d="M1.733,171.231c-0.022,0.073-0.031,0.147-0.051,0.22c0.031-0.107,0.05-0.218,0.082-0.323
	L1.733,171.231z"/>
<path style="fill:#96CA93;" d="M510.266,171.231l-0.031-0.104c0.032,0.105,0.051,0.217,0.082,0.323
	C510.297,171.378,510.288,171.304,510.266,171.231z"/>
<path style="fill:#3FA45A;" d="M101.305,278.45c31.069,0,58.888-14.17,77.347-36.381c18.46,22.211,46.278,36.381,77.347,36.381
	v-77.347v-46.408h-77.347H23.958c-10.382,0-19.167,6.819-22.131,16.22l-0.065,0.213c-0.032,0.105-0.051,0.217-0.082,0.323
	c-0.212,0.727-0.384,1.459-0.521,2.195c-0.048,0.263-0.082,0.532-0.122,0.798c-0.085,0.562-0.152,1.123-0.195,1.686
	c-0.026,0.334-0.039,0.67-0.05,1.007c-0.009,0.254-0.039,0.503-0.039,0.76c0,35.518,18.528,66.769,46.408,84.663
	c13.596,8.726,29.415,14.261,46.408,15.562C96.127,278.319,98.701,278.45,101.305,278.45z"/>
<path style="fill:#7CCC92;" d="M511.157,176.129c-0.043-0.562-0.11-1.125-0.195-1.685c-0.04-0.266-0.074-0.535-0.122-0.798
	c-0.138-0.736-0.309-1.468-0.521-2.195c-0.031-0.107-0.05-0.218-0.082-0.323l-0.065-0.213c-2.964-9.401-11.749-16.22-22.131-16.22
	H333.346h-77.347v46.408v77.347c31.069,0,58.888-14.17,77.347-36.381c18.46,22.211,46.278,36.381,77.347,36.381
	c2.605,0,5.179-0.132,7.735-0.326c16.993-1.299,32.812-6.836,46.408-15.562c27.881-17.894,46.408-49.145,46.408-84.663
	c0-0.257-0.031-0.504-0.039-0.758C511.197,176.802,511.182,176.465,511.157,176.129z"/>
<g>
</g>
<g>
</g>
<g>
</g>
<g>
</g>
<g>
</g>
<g>
</g>
<g>
</g>
<g>
</g>
<g>
</g>
<g>
</g>
<g>
</g>
<g>
</g>
<g>
</g>
<g>
</g>
<g>
</g>
</svg>
